<svg width="1440" height="57" viewBox="0 0 1440 57" fill="none" xmlns="http://www.w3.org/2000/svg">
<path d="M6.43804 0.5L0 8.01644L6.43804 15.602V0.5Z" fill="#EAEAF5"/>
<path d="M8.52734 0.5V7.98251L21.1808 0.5H8.52734Z" fill="#EAEAF5"/>
<path d="M8.52734 15.6021V8.11954L21.1808 15.6021H8.52734Z" fill="#EAEAF5"/>
<path d="M32.7115 0.5L26.2734 8.01644L32.7115 15.602V0.5Z" fill="#EAEAF5"/>
<path d="M34.8008 0.5V7.98251L47.4543 0.5H34.8008Z" fill="#EAEAF5"/>
<path d="M34.8008 15.6021V8.11954L47.4543 15.6021H34.8008Z" fill="#EAEAF5"/>
<path d="M58.9849 0.5L52.5469 8.01644L58.9849 15.602V0.5Z" fill="#EAEAF5"/>
<path d="M61.0742 0.5V7.98251L73.7277 0.5H61.0742Z" fill="#EAEAF5"/>
<path d="M61.0742 15.6021V8.11954L73.7277 15.6021H61.0742Z" fill="#EAEAF5"/>
<path d="M85.2584 0.5L78.8203 8.01644L85.2584 15.602V0.5Z" fill="#EAEAF5"/>
<path d="M87.3477 0.5V7.98251L100.001 0.5H87.3477Z" fill="#EAEAF5"/>
<path d="M87.3477 15.6021V8.11954L100.001 15.6021H87.3477Z" fill="#EAEAF5"/>
<path d="M111.532 0.5L105.094 8.01644L111.532 15.602V0.5Z" fill="#EAEAF5"/>
<path d="M113.621 0.5V7.98251L126.275 0.5H113.621Z" fill="#EAEAF5"/>
<path d="M113.621 15.6021V8.11954L126.275 15.6021H113.621Z" fill="#EAEAF5"/>
<path d="M137.805 0.5L131.367 8.01644L137.805 15.602V0.5Z" fill="#EAEAF5"/>
<path d="M139.895 0.5V7.98251L152.548 0.5H139.895Z" fill="#EAEAF5"/>
<path d="M139.895 15.6021V8.11954L152.548 15.6021H139.895Z" fill="#EAEAF5"/>
<path d="M164.079 0.5L157.641 8.01644L164.079 15.602V0.5Z" fill="#EAEAF5"/>
<path d="M166.168 0.5V7.98251L178.821 0.5H166.168Z" fill="#EAEAF5"/>
<path d="M166.168 15.6021V8.11954L178.821 15.6021H166.168Z" fill="#EAEAF5"/>
<path d="M190.35 0.5L183.912 8.01644L190.35 15.602V0.5Z" fill="#EAEAF5"/>
<path d="M192.439 0.5V7.98251L205.093 0.5H192.439Z" fill="#EAEAF5"/>
<path d="M192.439 15.6021V8.11954L205.093 15.6021H192.439Z" fill="#EAEAF5"/>
<path d="M216.624 0.5L210.186 8.01644L216.624 15.602V0.5Z" fill="#EAEAF5"/>
<path d="M218.713 0.5V7.98251L231.366 0.5H218.713Z" fill="#EAEAF5"/>
<path d="M218.713 15.6021V8.11954L231.366 15.6021H218.713Z" fill="#EAEAF5"/>
<path d="M242.897 0.5L236.459 8.01644L242.897 15.602V0.5Z" fill="#EAEAF5"/>
<path d="M244.986 0.5V7.98251L257.64 0.5H244.986Z" fill="#EAEAF5"/>
<path d="M244.986 15.6021V8.11954L257.64 15.6021H244.986Z" fill="#EAEAF5"/>
<path d="M269.17 0.5L262.732 8.01644L269.17 15.602V0.5Z" fill="#EAEAF5"/>
<path d="M271.26 0.5V7.98251L283.913 0.5H271.26Z" fill="#EAEAF5"/>
<path d="M271.26 15.6021V8.11954L283.913 15.6021H271.26Z" fill="#EAEAF5"/>
<path d="M295.444 0.5L289.006 8.01644L295.444 15.602V0.5Z" fill="#EAEAF5"/>
<path d="M297.533 0.5V7.98251L310.187 0.5H297.533Z" fill="#EAEAF5"/>
<path d="M297.533 15.6021V8.11954L310.187 15.6021H297.533Z" fill="#EAEAF5"/>
<path d="M321.717 0.5L315.279 8.01644L321.717 15.602V0.5Z" fill="#EAEAF5"/>
<path d="M323.807 0.5V7.98251L336.46 0.5H323.807Z" fill="#EAEAF5"/>
<path d="M323.807 15.6021V8.11954L336.46 15.6021H323.807Z" fill="#EAEAF5"/>
<path d="M347.991 0.5L341.553 8.01644L347.991 15.602V0.5Z" fill="#EAEAF5"/>
<path d="M350.08 0.5V7.98251L362.734 0.5H350.08Z" fill="#EAEAF5"/>
<path d="M350.08 15.6021V8.11954L362.734 15.6021H350.08Z" fill="#EAEAF5"/>
<path d="M374.264 0.5L367.826 8.01644L374.264 15.602V0.5Z" fill="#EAEAF5"/>
<path d="M376.354 0.5V7.98251L389.007 0.5H376.354Z" fill="#EAEAF5"/>
<path d="M376.354 15.6021V8.11954L389.007 15.6021H376.354Z" fill="#EAEAF5"/>
<path d="M400.538 0.5L394.1 8.01644L400.538 15.602V0.5Z" fill="#EAEAF5"/>
<path d="M402.627 0.5V7.98251L415.28 0.5H402.627Z" fill="#EAEAF5"/>
<path d="M402.627 15.6021V8.11954L415.28 15.6021H402.627Z" fill="#EAEAF5"/>
<path d="M426.811 0.5L420.373 8.01644L426.811 15.602V0.5Z" fill="#EAEAF5"/>
<path d="M428.9 0.5V7.98251L441.554 0.5H428.9Z" fill="#EAEAF5"/>
<path d="M428.9 15.6021V8.11954L441.554 15.6021H428.9Z" fill="#EAEAF5"/>
<path d="M453.085 0.5L446.646 8.01644L453.085 15.602V0.5Z" fill="#EAEAF5"/>
<path d="M455.174 0.5V7.98251L467.827 0.5H455.174Z" fill="#EAEAF5"/>
<path d="M455.174 15.6021V8.11954L467.827 15.6021H455.174Z" fill="#EAEAF5"/>
<path d="M479.358 0.5L472.92 8.01644L479.358 15.602V0.5Z" fill="#EAEAF5"/>
<path d="M481.447 0.5V7.98251L494.101 0.5H481.447Z" fill="#EAEAF5"/>
<path d="M481.447 15.6021V8.11954L494.101 15.6021H481.447Z" fill="#EAEAF5"/>
<path d="M505.631 0.5L499.193 8.01644L505.631 15.602V0.5Z" fill="#EAEAF5"/>
<path d="M507.721 0.5V7.98251L520.374 0.5H507.721Z" fill="#EAEAF5"/>
<path d="M507.721 15.6021V8.11954L520.374 15.6021H507.721Z" fill="#EAEAF5"/>
<path d="M531.903 0.5L525.465 8.01644L531.903 15.602V0.5Z" fill="#EAEAF5"/>
<path d="M533.992 0.5V7.98251L546.646 0.5H533.992Z" fill="#EAEAF5"/>
<path d="M533.992 15.6021V8.11954L546.646 15.6021H533.992Z" fill="#EAEAF5"/>
<path d="M558.176 0.5L551.738 8.01644L558.176 15.602V0.5Z" fill="#EAEAF5"/>
<path d="M560.266 0.5V7.98251L572.919 0.5H560.266Z" fill="#EAEAF5"/>
<path d="M560.266 15.6021V8.11954L572.919 15.6021H560.266Z" fill="#EAEAF5"/>
<path d="M584.45 0.5L578.012 8.01644L584.45 15.602V0.5Z" fill="#EAEAF5"/>
<path d="M586.539 0.5V7.98251L599.193 0.5H586.539Z" fill="#EAEAF5"/>
<path d="M586.539 15.6021V8.11954L599.193 15.6021H586.539Z" fill="#EAEAF5"/>
<path d="M610.723 0.5L604.285 8.01644L610.723 15.602V0.5Z" fill="#EAEAF5"/>
<path d="M612.812 0.5V7.98251L625.466 0.5H612.812Z" fill="#EAEAF5"/>
<path d="M612.812 15.6021V8.11954L625.466 15.6021H612.812Z" fill="#EAEAF5"/>
<path d="M636.997 0.5L630.559 8.01644L636.997 15.602V0.5Z" fill="#EAEAF5"/>
<path d="M639.086 0.5V7.98251L651.739 0.5H639.086Z" fill="#EAEAF5"/>
<path d="M639.086 15.6021V8.11954L651.739 15.6021H639.086Z" fill="#EAEAF5"/>
<path d="M663.27 0.5L656.832 8.01644L663.27 15.602V0.5Z" fill="#EAEAF5"/>
<path d="M665.359 0.5V7.98251L678.013 0.5H665.359Z" fill="#EAEAF5"/>
<path d="M665.359 15.6021V8.11954L678.013 15.6021H665.359Z" fill="#EAEAF5"/>
<path d="M689.544 0.5L683.105 8.01644L689.544 15.602V0.5Z" fill="#EAEAF5"/>
<path d="M691.633 0.5V7.98251L704.286 0.5H691.633Z" fill="#EAEAF5"/>
<path d="M691.633 15.6021V8.11954L704.286 15.6021H691.633Z" fill="#EAEAF5"/>
<path d="M715.817 0.5L709.379 8.01644L715.817 15.602V0.5Z" fill="#EAEAF5"/>
<path d="M717.906 0.5V7.98251L730.56 0.5H717.906Z" fill="#EAEAF5"/>
<path d="M717.906 15.6021V8.11954L730.56 15.6021H717.906Z" fill="#EAEAF5"/>
<path d="M742.09 0.5L735.652 8.01644L742.09 15.602V0.5Z" fill="#EAEAF5"/>
<path d="M744.18 0.5V7.98251L756.833 0.5H744.18Z" fill="#EAEAF5"/>
<path d="M744.18 15.6021V8.11954L756.833 15.6021H744.18Z" fill="#EAEAF5"/>
<path d="M768.364 0.5L761.926 8.01644L768.364 15.602V0.5Z" fill="#EAEAF5"/>
<path d="M770.453 0.5V7.98251L783.107 0.5H770.453Z" fill="#EAEAF5"/>
<path d="M770.453 15.6021V8.11954L783.107 15.6021H770.453Z" fill="#EAEAF5"/>
<path d="M794.637 0.5L788.199 8.01644L794.637 15.602V0.5Z" fill="#EAEAF5"/>
<path d="M796.727 0.5V7.98251L809.38 0.5H796.727Z" fill="#EAEAF5"/>
<path d="M796.727 15.6021V8.11954L809.38 15.6021H796.727Z" fill="#EAEAF5"/>
<path d="M820.911 0.5L814.473 8.01644L820.911 15.602V0.5Z" fill="#EAEAF5"/>
<path d="M823 0.5V7.98251L835.653 0.5H823Z" fill="#EAEAF5"/>
<path d="M823 15.6021V8.11954L835.653 15.6021H823Z" fill="#EAEAF5"/>
<path d="M847.184 0.5L840.746 8.01644L847.184 15.602V0.5Z" fill="#EAEAF5"/>
<path d="M849.273 0.5V7.98251L861.927 0.5H849.273Z" fill="#EAEAF5"/>
<path d="M849.273 15.6021V8.11954L861.927 15.6021H849.273Z" fill="#EAEAF5"/>
<path d="M873.458 0.5L867.02 8.01644L873.458 15.602V0.5Z" fill="#EAEAF5"/>
<path d="M875.547 0.5V7.98251L888.2 0.5H875.547Z" fill="#EAEAF5"/>
<path d="M875.547 15.6021V8.11954L888.2 15.6021H875.547Z" fill="#EAEAF5"/>
<path d="M899.731 0.5L893.293 8.01644L899.731 15.602V0.5Z" fill="#EAEAF5"/>
<path d="M901.82 0.5V7.98251L914.474 0.5H901.82Z" fill="#EAEAF5"/>
<path d="M901.82 15.6021V8.11954L914.474 15.6021H901.82Z" fill="#EAEAF5"/>
<path d="M926.004 0.5L919.566 8.01644L926.004 15.602V0.5Z" fill="#EAEAF5"/>
<path d="M928.094 0.5V7.98251L940.747 0.5H928.094Z" fill="#EAEAF5"/>
<path d="M928.094 15.6021V8.11954L940.747 15.6021H928.094Z" fill="#EAEAF5"/>
<path d="M952.276 0.5L945.838 8.01644L952.276 15.602V0.5Z" fill="#EAEAF5"/>
<path d="M954.365 0.5V7.98251L967.019 0.5H954.365Z" fill="#EAEAF5"/>
<path d="M954.365 15.6021V8.11954L967.019 15.6021H954.365Z" fill="#EAEAF5"/>
<path d="M978.549 0.5L972.111 8.01644L978.549 15.602V0.5Z" fill="#EAEAF5"/>
<path d="M980.639 0.5V7.98251L993.292 0.5H980.639Z" fill="#EAEAF5"/>
<path d="M980.639 15.6021V8.11954L993.292 15.6021H980.639Z" fill="#EAEAF5"/>
<path d="M1004.82 0.5L998.385 8.01644L1004.82 15.602V0.5Z" fill="#EAEAF5"/>
<path d="M1006.91 0.5V7.98251L1019.57 0.5H1006.91Z" fill="#EAEAF5"/>
<path d="M1006.91 15.6021V8.11954L1019.57 15.6021H1006.91Z" fill="#EAEAF5"/>
<path d="M1031.1 0.5L1024.66 8.01644L1031.1 15.602V0.5Z" fill="#EAEAF5"/>
<path d="M1033.19 0.5V7.98251L1045.84 0.5H1033.19Z" fill="#EAEAF5"/>
<path d="M1033.19 15.6021V8.11954L1045.84 15.6021H1033.19Z" fill="#EAEAF5"/>
<path d="M1057.37 0.5L1050.93 8.01644L1057.37 15.602V0.5Z" fill="#EAEAF5"/>
<path d="M1059.46 0.5V7.98251L1072.11 0.5H1059.46Z" fill="#EAEAF5"/>
<path d="M1059.46 15.6021V8.11954L1072.11 15.6021H1059.46Z" fill="#EAEAF5"/>
<path d="M1083.64 0.5L1077.21 8.01644L1083.64 15.602V0.5Z" fill="#EAEAF5"/>
<path d="M1085.73 0.5V7.98251L1098.39 0.5H1085.73Z" fill="#EAEAF5"/>
<path d="M1085.73 15.6021V8.11954L1098.39 15.6021H1085.73Z" fill="#EAEAF5"/>
<path d="M1109.92 0.5L1103.48 8.01644L1109.92 15.602V0.5Z" fill="#EAEAF5"/>
<path d="M1112.01 0.5V7.98251L1124.66 0.5H1112.01Z" fill="#EAEAF5"/>
<path d="M1112.01 15.6021V8.11954L1124.66 15.6021H1112.01Z" fill="#EAEAF5"/>
<path d="M1136.19 0.5L1129.75 8.01644L1136.19 15.602V0.5Z" fill="#EAEAF5"/>
<path d="M1138.28 0.5V7.98251L1150.93 0.5H1138.28Z" fill="#EAEAF5"/>
<path d="M1138.28 15.6021V8.11954L1150.93 15.6021H1138.28Z" fill="#EAEAF5"/>
<path d="M1162.46 0.5L1156.03 8.01644L1162.46 15.602V0.5Z" fill="#EAEAF5"/>
<path d="M1164.55 0.5V7.98251L1177.21 0.5H1164.55Z" fill="#EAEAF5"/>
<path d="M1164.55 15.6021V8.11954L1177.21 15.6021H1164.55Z" fill="#EAEAF5"/>
<path d="M1188.74 0.5L1182.3 8.01644L1188.74 15.602V0.5Z" fill="#EAEAF5"/>
<path d="M1190.83 0.5V7.98251L1203.48 0.5H1190.83Z" fill="#EAEAF5"/>
<path d="M1190.83 15.6021V8.11954L1203.48 15.6021H1190.83Z" fill="#EAEAF5"/>
<path d="M1215.01 0.5L1208.57 8.01644L1215.01 15.602V0.5Z" fill="#EAEAF5"/>
<path d="M1217.1 0.5V7.98251L1229.75 0.5H1217.1Z" fill="#EAEAF5"/>
<path d="M1217.1 15.6021V8.11954L1229.75 15.6021H1217.1Z" fill="#EAEAF5"/>
<path d="M1241.28 0.5L1234.85 8.01644L1241.28 15.602V0.5Z" fill="#EAEAF5"/>
<path d="M1243.37 0.5V7.98251L1256.03 0.5H1243.37Z" fill="#EAEAF5"/>
<path d="M1243.37 15.6021V8.11954L1256.03 15.6021H1243.37Z" fill="#EAEAF5"/>
<path d="M1267.56 0.5L1261.12 8.01644L1267.56 15.602V0.5Z" fill="#EAEAF5"/>
<path d="M1269.65 0.5V7.98251L1282.3 0.5H1269.65Z" fill="#EAEAF5"/>
<path d="M1269.65 15.6021V8.11954L1282.3 15.6021H1269.65Z" fill="#EAEAF5"/>
<path d="M1293.83 0.5L1287.39 8.01644L1293.83 15.602V0.5Z" fill="#EAEAF5"/>
<path d="M1295.92 0.5V7.98251L1308.57 0.5H1295.92Z" fill="#EAEAF5"/>
<path d="M1295.92 15.6021V8.11954L1308.57 15.6021H1295.92Z" fill="#EAEAF5"/>
<path d="M1320.1 0.5L1313.67 8.01644L1320.1 15.602V0.5Z" fill="#EAEAF5"/>
<path d="M1322.19 0.5V7.98251L1334.85 0.5H1322.19Z" fill="#EAEAF5"/>
<path d="M1322.19 15.6021V8.11954L1334.85 15.6021H1322.19Z" fill="#EAEAF5"/>
<path d="M1346.38 0.5L1339.94 8.01644L1346.38 15.602V0.5Z" fill="#EAEAF5"/>
<path d="M1348.46 0.5V7.98251L1361.12 0.5H1348.46Z" fill="#EAEAF5"/>
<path d="M1348.46 15.6021V8.11954L1361.12 15.6021H1348.46Z" fill="#EAEAF5"/>
<path d="M1372.65 0.5L1366.21 8.01644L1372.65 15.602V0.5Z" fill="#EAEAF5"/>
<path d="M1374.74 0.5V7.98251L1387.39 0.5H1374.74Z" fill="#EAEAF5"/>
<path d="M1374.74 15.6021V8.11954L1387.39 15.6021H1374.74Z" fill="#EAEAF5"/>
<path d="M1398.92 0.5L1392.48 8.01644L1398.92 15.602V0.5Z" fill="#EAEAF5"/>
<path d="M1401.01 0.5V7.98251L1413.67 0.5H1401.01Z" fill="#EAEAF5"/>
<path d="M1401.01 15.6021V8.11954L1413.67 15.6021H1401.01Z" fill="#EAEAF5"/>
<path d="M1425.2 0.5L1418.76 8.01644L1425.2 15.602V0.5Z" fill="#EAEAF5"/>
<path d="M1427.29 0.5V7.98251L1439.94 0.5H1427.29Z" fill="#EAEAF5"/>
<path d="M1427.29 15.6021V8.11954L1439.94 15.6021H1427.29Z" fill="#EAEAF5"/>
<path d="M6.43804 20.6948L0 28.2113L6.43804 35.7968V20.6948Z" fill="#EAEAF5"/>
<path d="M8.52734 20.6948V28.1773L21.1808 20.6948H8.52734Z" fill="#EAEAF5"/>
<path d="M8.52734 35.7969V28.3144L21.1808 35.7969H8.52734Z" fill="#EAEAF5"/>
<path d="M32.7115 20.6948L26.2734 28.2113L32.7115 35.7968V20.6948Z" fill="#EAEAF5"/>
<path d="M34.8008 20.6948V28.1773L47.4543 20.6948H34.8008Z" fill="#EAEAF5"/>
<path d="M34.8008 35.7969V28.3144L47.4543 35.7969H34.8008Z" fill="#EAEAF5"/>
<path d="M58.9849 20.6948L52.5469 28.2113L58.9849 35.7968V20.6948Z" fill="#EAEAF5"/>
<path d="M61.0742 20.6948V28.1773L73.7277 20.6948H61.0742Z" fill="#EAEAF5"/>
<path d="M61.0742 35.7969V28.3144L73.7277 35.7969H61.0742Z" fill="#EAEAF5"/>
<path d="M85.2584 20.6948L78.8203 28.2113L85.2584 35.7968V20.6948Z" fill="#EAEAF5"/>
<path d="M87.3477 20.6948V28.1773L100.001 20.6948H87.3477Z" fill="#EAEAF5"/>
<path d="M87.3477 35.7969V28.3144L100.001 35.7969H87.3477Z" fill="#EAEAF5"/>
<path d="M111.532 20.6948L105.094 28.2113L111.532 35.7968V20.6948Z" fill="#EAEAF5"/>
<path d="M113.621 20.6948V28.1773L126.275 20.6948H113.621Z" fill="#EAEAF5"/>
<path d="M113.621 35.7969V28.3144L126.275 35.7969H113.621Z" fill="#EAEAF5"/>
<path d="M137.805 20.6948L131.367 28.2113L137.805 35.7968V20.6948Z" fill="#EAEAF5"/>
<path d="M139.895 20.6948V28.1773L152.548 20.6948H139.895Z" fill="#EAEAF5"/>
<path d="M139.895 35.7969V28.3144L152.548 35.7969H139.895Z" fill="#EAEAF5"/>
<path d="M164.079 20.6948L157.641 28.2113L164.079 35.7968V20.6948Z" fill="#EAEAF5"/>
<path d="M166.168 20.6948V28.1773L178.821 20.6948H166.168Z" fill="#EAEAF5"/>
<path d="M166.168 35.7969V28.3144L178.821 35.7969H166.168Z" fill="#EAEAF5"/>
<path d="M190.35 20.6948L183.912 28.2113L190.35 35.7968V20.6948Z" fill="#EAEAF5"/>
<path d="M192.439 20.6948V28.1773L205.093 20.6948H192.439Z" fill="#EAEAF5"/>
<path d="M192.439 35.7969V28.3144L205.093 35.7969H192.439Z" fill="#EAEAF5"/>
<path d="M216.624 20.6948L210.186 28.2113L216.624 35.7968V20.6948Z" fill="#EAEAF5"/>
<path d="M218.713 20.6948V28.1773L231.366 20.6948H218.713Z" fill="#EAEAF5"/>
<path d="M218.713 35.7969V28.3144L231.366 35.7969H218.713Z" fill="#EAEAF5"/>
<path d="M242.897 20.6948L236.459 28.2113L242.897 35.7968V20.6948Z" fill="#EAEAF5"/>
<path d="M244.986 20.6948V28.1773L257.64 20.6948H244.986Z" fill="#EAEAF5"/>
<path d="M244.986 35.7969V28.3144L257.64 35.7969H244.986Z" fill="#EAEAF5"/>
<path d="M269.17 20.6948L262.732 28.2113L269.17 35.7968V20.6948Z" fill="#EAEAF5"/>
<path d="M271.26 20.6948V28.1773L283.913 20.6948H271.26Z" fill="#EAEAF5"/>
<path d="M271.26 35.7969V28.3144L283.913 35.7969H271.26Z" fill="#EAEAF5"/>
<path d="M295.444 20.6948L289.006 28.2113L295.444 35.7968V20.6948Z" fill="#EAEAF5"/>
<path d="M297.533 20.6948V28.1773L310.187 20.6948H297.533Z" fill="#EAEAF5"/>
<path d="M297.533 35.7969V28.3144L310.187 35.7969H297.533Z" fill="#EAEAF5"/>
<path d="M321.717 20.6948L315.279 28.2113L321.717 35.7968V20.6948Z" fill="#EAEAF5"/>
<path d="M323.807 20.6948V28.1773L336.46 20.6948H323.807Z" fill="#EAEAF5"/>
<path d="M323.807 35.7969V28.3144L336.46 35.7969H323.807Z" fill="#EAEAF5"/>
<path d="M347.991 20.6948L341.553 28.2113L347.991 35.7968V20.6948Z" fill="#EAEAF5"/>
<path d="M350.08 20.6948V28.1773L362.734 20.6948H350.08Z" fill="#EAEAF5"/>
<path d="M350.08 35.7969V28.3144L362.734 35.7969H350.08Z" fill="#EAEAF5"/>
<path d="M374.264 20.6948L367.826 28.2113L374.264 35.7968V20.6948Z" fill="#EAEAF5"/>
<path d="M376.354 20.6948V28.1773L389.007 20.6948H376.354Z" fill="#EAEAF5"/>
<path d="M376.354 35.7969V28.3144L389.007 35.7969H376.354Z" fill="#EAEAF5"/>
<path d="M400.538 20.6948L394.1 28.2113L400.538 35.7968V20.6948Z" fill="#EAEAF5"/>
<path d="M402.627 20.6948V28.1773L415.28 20.6948H402.627Z" fill="#EAEAF5"/>
<path d="M402.627 35.7969V28.3144L415.28 35.7969H402.627Z" fill="#EAEAF5"/>
<path d="M426.811 20.6948L420.373 28.2113L426.811 35.7968V20.6948Z" fill="#EAEAF5"/>
<path d="M428.9 20.6948V28.1773L441.554 20.6948H428.9Z" fill="#EAEAF5"/>
<path d="M428.9 35.7969V28.3144L441.554 35.7969H428.9Z" fill="#EAEAF5"/>
<path d="M453.085 20.6948L446.646 28.2113L453.085 35.7968V20.6948Z" fill="#EAEAF5"/>
<path d="M455.174 20.6948V28.1773L467.827 20.6948H455.174Z" fill="#EAEAF5"/>
<path d="M455.174 35.7969V28.3144L467.827 35.7969H455.174Z" fill="#EAEAF5"/>
<path d="M479.358 20.6948L472.92 28.2113L479.358 35.7968V20.6948Z" fill="#EAEAF5"/>
<path d="M481.447 20.6948V28.1773L494.101 20.6948H481.447Z" fill="#EAEAF5"/>
<path d="M481.447 35.7969V28.3144L494.101 35.7969H481.447Z" fill="#EAEAF5"/>
<path d="M505.631 20.6948L499.193 28.2113L505.631 35.7968V20.6948Z" fill="#EAEAF5"/>
<path d="M507.721 20.6948V28.1773L520.374 20.6948H507.721Z" fill="#EAEAF5"/>
<path d="M507.721 35.7969V28.3144L520.374 35.7969H507.721Z" fill="#EAEAF5"/>
<path d="M531.903 20.6948L525.465 28.2113L531.903 35.7968V20.6948Z" fill="#EAEAF5"/>
<path d="M533.992 20.6948V28.1773L546.646 20.6948H533.992Z" fill="#EAEAF5"/>
<path d="M533.992 35.7969V28.3144L546.646 35.7969H533.992Z" fill="#EAEAF5"/>
<path d="M558.176 20.6948L551.738 28.2113L558.176 35.7968V20.6948Z" fill="#EAEAF5"/>
<path d="M560.266 20.6948V28.1773L572.919 20.6948H560.266Z" fill="#EAEAF5"/>
<path d="M560.266 35.7969V28.3144L572.919 35.7969H560.266Z" fill="#EAEAF5"/>
<path d="M584.45 20.6948L578.012 28.2113L584.45 35.7968V20.6948Z" fill="#EAEAF5"/>
<path d="M586.539 20.6948V28.1773L599.193 20.6948H586.539Z" fill="#EAEAF5"/>
<path d="M586.539 35.7969V28.3144L599.193 35.7969H586.539Z" fill="#EAEAF5"/>
<path d="M610.723 20.6948L604.285 28.2113L610.723 35.7968V20.6948Z" fill="#EAEAF5"/>
<path d="M612.812 20.6948V28.1773L625.466 20.6948H612.812Z" fill="#EAEAF5"/>
<path d="M612.812 35.7969V28.3144L625.466 35.7969H612.812Z" fill="#EAEAF5"/>
<path d="M636.997 20.6948L630.559 28.2113L636.997 35.7968V20.6948Z" fill="#EAEAF5"/>
<path d="M639.086 20.6948V28.1773L651.739 20.6948H639.086Z" fill="#EAEAF5"/>
<path d="M639.086 35.7969V28.3144L651.739 35.7969H639.086Z" fill="#EAEAF5"/>
<path d="M663.27 20.6948L656.832 28.2113L663.27 35.7968V20.6948Z" fill="#EAEAF5"/>
<path d="M665.359 20.6948V28.1773L678.013 20.6948H665.359Z" fill="#EAEAF5"/>
<path d="M665.359 35.7969V28.3144L678.013 35.7969H665.359Z" fill="#EAEAF5"/>
<path d="M689.544 20.6948L683.105 28.2113L689.544 35.7968V20.6948Z" fill="#EAEAF5"/>
<path d="M691.633 20.6948V28.1773L704.286 20.6948H691.633Z" fill="#EAEAF5"/>
<path d="M691.633 35.7969V28.3144L704.286 35.7969H691.633Z" fill="#EAEAF5"/>
<path d="M715.817 20.6948L709.379 28.2113L715.817 35.7968V20.6948Z" fill="#EAEAF5"/>
<path d="M717.906 20.6948V28.1773L730.56 20.6948H717.906Z" fill="#EAEAF5"/>
<path d="M717.906 35.7969V28.3144L730.56 35.7969H717.906Z" fill="#EAEAF5"/>
<path d="M742.09 20.6948L735.652 28.2113L742.09 35.7968V20.6948Z" fill="#EAEAF5"/>
<path d="M744.18 20.6948V28.1773L756.833 20.6948H744.18Z" fill="#EAEAF5"/>
<path d="M744.18 35.7969V28.3144L756.833 35.7969H744.18Z" fill="#EAEAF5"/>
<path d="M768.364 20.6948L761.926 28.2113L768.364 35.7968V20.6948Z" fill="#EAEAF5"/>
<path d="M770.453 20.6948V28.1773L783.107 20.6948H770.453Z" fill="#EAEAF5"/>
<path d="M770.453 35.7969V28.3144L783.107 35.7969H770.453Z" fill="#EAEAF5"/>
<path d="M794.637 20.6948L788.199 28.2113L794.637 35.7968V20.6948Z" fill="#EAEAF5"/>
<path d="M796.727 20.6948V28.1773L809.38 20.6948H796.727Z" fill="#EAEAF5"/>
<path d="M796.727 35.7969V28.3144L809.38 35.7969H796.727Z" fill="#EAEAF5"/>
<path d="M820.911 20.6948L814.473 28.2113L820.911 35.7968V20.6948Z" fill="#EAEAF5"/>
<path d="M823 20.6948V28.1773L835.653 20.6948H823Z" fill="#EAEAF5"/>
<path d="M823 35.7969V28.3144L835.653 35.7969H823Z" fill="#EAEAF5"/>
<path d="M847.184 20.6948L840.746 28.2113L847.184 35.7968V20.6948Z" fill="#EAEAF5"/>
<path d="M849.273 20.6948V28.1773L861.927 20.6948H849.273Z" fill="#EAEAF5"/>
<path d="M849.273 35.7969V28.3144L861.927 35.7969H849.273Z" fill="#EAEAF5"/>
<path d="M873.458 20.6948L867.02 28.2113L873.458 35.7968V20.6948Z" fill="#EAEAF5"/>
<path d="M875.547 20.6948V28.1773L888.2 20.6948H875.547Z" fill="#EAEAF5"/>
<path d="M875.547 35.7969V28.3144L888.2 35.7969H875.547Z" fill="#EAEAF5"/>
<path d="M899.731 20.6948L893.293 28.2113L899.731 35.7968V20.6948Z" fill="#EAEAF5"/>
<path d="M901.82 20.6948V28.1773L914.474 20.6948H901.82Z" fill="#EAEAF5"/>
<path d="M901.82 35.7969V28.3144L914.474 35.7969H901.82Z" fill="#EAEAF5"/>
<path d="M926.004 20.6948L919.566 28.2113L926.004 35.7968V20.6948Z" fill="#EAEAF5"/>
<path d="M928.094 20.6948V28.1773L940.747 20.6948H928.094Z" fill="#EAEAF5"/>
<path d="M928.094 35.7969V28.3144L940.747 35.7969H928.094Z" fill="#EAEAF5"/>
<path d="M952.276 20.6948L945.838 28.2113L952.276 35.7968V20.6948Z" fill="#EAEAF5"/>
<path d="M954.365 20.6948V28.1773L967.019 20.6948H954.365Z" fill="#EAEAF5"/>
<path d="M954.365 35.7969V28.3144L967.019 35.7969H954.365Z" fill="#EAEAF5"/>
<path d="M978.549 20.6948L972.111 28.2113L978.549 35.7968V20.6948Z" fill="#EAEAF5"/>
<path d="M980.639 20.6948V28.1773L993.292 20.6948H980.639Z" fill="#EAEAF5"/>
<path d="M980.639 35.7969V28.3144L993.292 35.7969H980.639Z" fill="#EAEAF5"/>
<path d="M1004.82 20.6948L998.385 28.2113L1004.82 35.7968V20.6948Z" fill="#EAEAF5"/>
<path d="M1006.91 20.6948V28.1773L1019.57 20.6948H1006.91Z" fill="#EAEAF5"/>
<path d="M1006.91 35.7969V28.3144L1019.57 35.7969H1006.91Z" fill="#EAEAF5"/>
<path d="M1031.1 20.6948L1024.66 28.2113L1031.1 35.7968V20.6948Z" fill="#EAEAF5"/>
<path d="M1033.19 20.6948V28.1773L1045.84 20.6948H1033.19Z" fill="#EAEAF5"/>
<path d="M1033.19 35.7969V28.3144L1045.84 35.7969H1033.19Z" fill="#EAEAF5"/>
<path d="M1057.37 20.6948L1050.93 28.2113L1057.37 35.7968V20.6948Z" fill="#EAEAF5"/>
<path d="M1059.46 20.6948V28.1773L1072.11 20.6948H1059.46Z" fill="#EAEAF5"/>
<path d="M1059.46 35.7969V28.3144L1072.11 35.7969H1059.46Z" fill="#EAEAF5"/>
<path d="M1083.64 20.6948L1077.21 28.2113L1083.64 35.7968V20.6948Z" fill="#EAEAF5"/>
<path d="M1085.73 20.6948V28.1773L1098.39 20.6948H1085.73Z" fill="#EAEAF5"/>
<path d="M1085.73 35.7969V28.3144L1098.39 35.7969H1085.73Z" fill="#EAEAF5"/>
<path d="M1109.92 20.6948L1103.48 28.2113L1109.92 35.7968V20.6948Z" fill="#EAEAF5"/>
<path d="M1112.01 20.6948V28.1773L1124.66 20.6948H1112.01Z" fill="#EAEAF5"/>
<path d="M1112.01 35.7969V28.3144L1124.66 35.7969H1112.01Z" fill="#EAEAF5"/>
<path d="M1136.19 20.6948L1129.75 28.2113L1136.19 35.7968V20.6948Z" fill="#EAEAF5"/>
<path d="M1138.28 20.6948V28.1773L1150.93 20.6948H1138.28Z" fill="#EAEAF5"/>
<path d="M1138.28 35.7969V28.3144L1150.93 35.7969H1138.28Z" fill="#EAEAF5"/>
<path d="M1162.46 20.6948L1156.03 28.2113L1162.46 35.7968V20.6948Z" fill="#EAEAF5"/>
<path d="M1164.55 20.6948V28.1773L1177.21 20.6948H1164.55Z" fill="#EAEAF5"/>
<path d="M1164.55 35.7969V28.3144L1177.21 35.7969H1164.55Z" fill="#EAEAF5"/>
<path d="M1188.74 20.6948L1182.3 28.2113L1188.74 35.7968V20.6948Z" fill="#EAEAF5"/>
<path d="M1190.83 20.6948V28.1773L1203.48 20.6948H1190.83Z" fill="#EAEAF5"/>
<path d="M1190.83 35.7969V28.3144L1203.48 35.7969H1190.83Z" fill="#EAEAF5"/>
<path d="M1215.01 20.6948L1208.57 28.2113L1215.01 35.7968V20.6948Z" fill="#EAEAF5"/>
<path d="M1217.1 20.6948V28.1773L1229.75 20.6948H1217.1Z" fill="#EAEAF5"/>
<path d="M1217.1 35.7969V28.3144L1229.75 35.7969H1217.1Z" fill="#EAEAF5"/>
<path d="M1241.28 20.6948L1234.85 28.2113L1241.28 35.7968V20.6948Z" fill="#EAEAF5"/>
<path d="M1243.37 20.6948V28.1773L1256.03 20.6948H1243.37Z" fill="#EAEAF5"/>
<path d="M1243.37 35.7969V28.3144L1256.03 35.7969H1243.37Z" fill="#EAEAF5"/>
<path d="M1267.56 20.6948L1261.12 28.2113L1267.56 35.7968V20.6948Z" fill="#EAEAF5"/>
<path d="M1269.65 20.6948V28.1773L1282.3 20.6948H1269.65Z" fill="#EAEAF5"/>
<path d="M1269.65 35.7969V28.3144L1282.3 35.7969H1269.65Z" fill="#EAEAF5"/>
<path d="M1293.83 20.6948L1287.39 28.2113L1293.83 35.7968V20.6948Z" fill="#EAEAF5"/>
<path d="M1295.92 20.6948V28.1773L1308.57 20.6948H1295.92Z" fill="#EAEAF5"/>
<path d="M1295.92 35.7969V28.3144L1308.57 35.7969H1295.92Z" fill="#EAEAF5"/>
<path d="M1320.1 20.6948L1313.67 28.2113L1320.1 35.7968V20.6948Z" fill="#EAEAF5"/>
<path d="M1322.19 20.6948V28.1773L1334.85 20.6948H1322.19Z" fill="#EAEAF5"/>
<path d="M1322.19 35.7969V28.3144L1334.85 35.7969H1322.19Z" fill="#EAEAF5"/>
<path d="M1346.38 20.6948L1339.94 28.2113L1346.38 35.7968V20.6948Z" fill="#EAEAF5"/>
<path d="M1348.46 20.6948V28.1773L1361.12 20.6948H1348.46Z" fill="#EAEAF5"/>
<path d="M1348.46 35.7969V28.3144L1361.12 35.7969H1348.46Z" fill="#EAEAF5"/>
<path d="M1372.65 20.6948L1366.21 28.2113L1372.65 35.7968V20.6948Z" fill="#EAEAF5"/>
<path d="M1374.74 20.6948V28.1773L1387.39 20.6948H1374.74Z" fill="#EAEAF5"/>
<path d="M1374.74 35.7969V28.3144L1387.39 35.7969H1374.74Z" fill="#EAEAF5"/>
<path d="M1398.92 20.6948L1392.48 28.2113L1398.92 35.7968V20.6948Z" fill="#EAEAF5"/>
<path d="M1401.01 20.6948V28.1773L1413.67 20.6948H1401.01Z" fill="#EAEAF5"/>
<path d="M1401.01 35.7969V28.3144L1413.67 35.7969H1401.01Z" fill="#EAEAF5"/>
<path d="M1425.2 20.6948L1418.76 28.2113L1425.2 35.7968V20.6948Z" fill="#EAEAF5"/>
<path d="M1427.29 20.6948V28.1773L1439.94 20.6948H1427.29Z" fill="#EAEAF5"/>
<path d="M1427.29 35.7969V28.3144L1439.94 35.7969H1427.29Z" fill="#EAEAF5"/>
<path d="M6.43804 40.8896L0 48.4061L6.43804 55.9917V40.8896Z" fill="#EAEAF5"/>
<path d="M8.52734 40.8896V48.3722L21.1808 40.8896H8.52734Z" fill="#EAEAF5"/>
<path d="M8.52734 55.9917V48.5092L21.1808 55.9917H8.52734Z" fill="#EAEAF5"/>
<path d="M32.7115 40.8896L26.2734 48.4061L32.7115 55.9917V40.8896Z" fill="#EAEAF5"/>
<path d="M34.8008 40.8896V48.3722L47.4543 40.8896H34.8008Z" fill="#EAEAF5"/>
<path d="M34.8008 55.9917V48.5092L47.4543 55.9917H34.8008Z" fill="#EAEAF5"/>
<path d="M58.9849 40.8896L52.5469 48.4061L58.9849 55.9917V40.8896Z" fill="#EAEAF5"/>
<path d="M61.0742 40.8896V48.3722L73.7277 40.8896H61.0742Z" fill="#EAEAF5"/>
<path d="M61.0742 55.9917V48.5092L73.7277 55.9917H61.0742Z" fill="#EAEAF5"/>
<path d="M85.2584 40.8896L78.8203 48.4061L85.2584 55.9917V40.8896Z" fill="#EAEAF5"/>
<path d="M87.3477 40.8896V48.3722L100.001 40.8896H87.3477Z" fill="#EAEAF5"/>
<path d="M87.3477 55.9917V48.5092L100.001 55.9917H87.3477Z" fill="#EAEAF5"/>
<path d="M111.532 40.8896L105.094 48.4061L111.532 55.9917V40.8896Z" fill="#EAEAF5"/>
<path d="M113.621 40.8896V48.3722L126.275 40.8896H113.621Z" fill="#EAEAF5"/>
<path d="M113.621 55.9917V48.5092L126.275 55.9917H113.621Z" fill="#EAEAF5"/>
<path d="M137.805 40.8896L131.367 48.4061L137.805 55.9917V40.8896Z" fill="#EAEAF5"/>
<path d="M139.895 40.8896V48.3722L152.548 40.8896H139.895Z" fill="#EAEAF5"/>
<path d="M139.895 55.9917V48.5092L152.548 55.9917H139.895Z" fill="#EAEAF5"/>
<path d="M164.079 40.8896L157.641 48.4061L164.079 55.9917V40.8896Z" fill="#EAEAF5"/>
<path d="M166.168 40.8896V48.3722L178.821 40.8896H166.168Z" fill="#EAEAF5"/>
<path d="M166.168 55.9917V48.5092L178.821 55.9917H166.168Z" fill="#EAEAF5"/>
<path d="M190.35 40.8896L183.912 48.4061L190.35 55.9917V40.8896Z" fill="#EAEAF5"/>
<path d="M192.439 40.8896V48.3722L205.093 40.8896H192.439Z" fill="#EAEAF5"/>
<path d="M192.439 55.9917V48.5092L205.093 55.9917H192.439Z" fill="#EAEAF5"/>
<path d="M216.624 40.8896L210.186 48.4061L216.624 55.9917V40.8896Z" fill="#EAEAF5"/>
<path d="M218.713 40.8896V48.3722L231.366 40.8896H218.713Z" fill="#EAEAF5"/>
<path d="M218.713 55.9917V48.5092L231.366 55.9917H218.713Z" fill="#EAEAF5"/>
<path d="M242.897 40.8896L236.459 48.4061L242.897 55.9917V40.8896Z" fill="#EAEAF5"/>
<path d="M244.986 40.8896V48.3722L257.64 40.8896H244.986Z" fill="#EAEAF5"/>
<path d="M244.986 55.9917V48.5092L257.64 55.9917H244.986Z" fill="#EAEAF5"/>
<path d="M269.17 40.8896L262.732 48.4061L269.17 55.9917V40.8896Z" fill="#EAEAF5"/>
<path d="M271.26 40.8896V48.3722L283.913 40.8896H271.26Z" fill="#EAEAF5"/>
<path d="M271.26 55.9917V48.5092L283.913 55.9917H271.26Z" fill="#EAEAF5"/>
<path d="M295.444 40.8896L289.006 48.4061L295.444 55.9917V40.8896Z" fill="#EAEAF5"/>
<path d="M297.533 40.8896V48.3722L310.187 40.8896H297.533Z" fill="#EAEAF5"/>
<path d="M297.533 55.9917V48.5092L310.187 55.9917H297.533Z" fill="#EAEAF5"/>
<path d="M321.717 40.8896L315.279 48.4061L321.717 55.9917V40.8896Z" fill="#EAEAF5"/>
<path d="M323.807 40.8896V48.3722L336.46 40.8896H323.807Z" fill="#EAEAF5"/>
<path d="M323.807 55.9917V48.5092L336.46 55.9917H323.807Z" fill="#EAEAF5"/>
<path d="M347.991 40.8896L341.553 48.4061L347.991 55.9917V40.8896Z" fill="#EAEAF5"/>
<path d="M350.08 40.8896V48.3722L362.734 40.8896H350.08Z" fill="#EAEAF5"/>
<path d="M350.08 55.9917V48.5092L362.734 55.9917H350.08Z" fill="#EAEAF5"/>
<path d="M374.264 40.8896L367.826 48.4061L374.264 55.9917V40.8896Z" fill="#EAEAF5"/>
<path d="M376.354 40.8896V48.3722L389.007 40.8896H376.354Z" fill="#EAEAF5"/>
<path d="M376.354 55.9917V48.5092L389.007 55.9917H376.354Z" fill="#EAEAF5"/>
<path d="M400.538 40.8896L394.1 48.4061L400.538 55.9917V40.8896Z" fill="#EAEAF5"/>
<path d="M402.627 40.8896V48.3722L415.28 40.8896H402.627Z" fill="#EAEAF5"/>
<path d="M402.627 55.9917V48.5092L415.28 55.9917H402.627Z" fill="#EAEAF5"/>
<path d="M426.811 40.8896L420.373 48.4061L426.811 55.9917V40.8896Z" fill="#EAEAF5"/>
<path d="M428.9 40.8896V48.3722L441.554 40.8896H428.9Z" fill="#EAEAF5"/>
<path d="M428.9 55.9917V48.5092L441.554 55.9917H428.9Z" fill="#EAEAF5"/>
<path d="M453.085 40.8896L446.646 48.4061L453.085 55.9917V40.8896Z" fill="#EAEAF5"/>
<path d="M455.174 40.8896V48.3722L467.827 40.8896H455.174Z" fill="#EAEAF5"/>
<path d="M455.174 55.9917V48.5092L467.827 55.9917H455.174Z" fill="#EAEAF5"/>
<path d="M479.358 40.8896L472.92 48.4061L479.358 55.9917V40.8896Z" fill="#EAEAF5"/>
<path d="M481.447 40.8896V48.3722L494.101 40.8896H481.447Z" fill="#EAEAF5"/>
<path d="M481.447 55.9917V48.5092L494.101 55.9917H481.447Z" fill="#EAEAF5"/>
<path d="M505.631 40.8896L499.193 48.4061L505.631 55.9917V40.8896Z" fill="#EAEAF5"/>
<path d="M507.721 40.8896V48.3722L520.374 40.8896H507.721Z" fill="#EAEAF5"/>
<path d="M507.721 55.9917V48.5092L520.374 55.9917H507.721Z" fill="#EAEAF5"/>
<path d="M531.903 40.8896L525.465 48.4061L531.903 55.9917V40.8896Z" fill="#EAEAF5"/>
<path d="M533.992 40.8896V48.3722L546.646 40.8896H533.992Z" fill="#EAEAF5"/>
<path d="M533.992 55.9917V48.5092L546.646 55.9917H533.992Z" fill="#EAEAF5"/>
<path d="M558.176 40.8896L551.738 48.4061L558.176 55.9917V40.8896Z" fill="#EAEAF5"/>
<path d="M560.266 40.8896V48.3722L572.919 40.8896H560.266Z" fill="#EAEAF5"/>
<path d="M560.266 55.9917V48.5092L572.919 55.9917H560.266Z" fill="#EAEAF5"/>
<path d="M584.45 40.8896L578.012 48.4061L584.45 55.9917V40.8896Z" fill="#EAEAF5"/>
<path d="M586.539 40.8896V48.3722L599.193 40.8896H586.539Z" fill="#EAEAF5"/>
<path d="M586.539 55.9917V48.5092L599.193 55.9917H586.539Z" fill="#EAEAF5"/>
<path d="M610.723 40.8896L604.285 48.4061L610.723 55.9917V40.8896Z" fill="#EAEAF5"/>
<path d="M612.812 40.8896V48.3722L625.466 40.8896H612.812Z" fill="#EAEAF5"/>
<path d="M612.812 55.9917V48.5092L625.466 55.9917H612.812Z" fill="#EAEAF5"/>
<path d="M636.997 40.8896L630.559 48.4061L636.997 55.9917V40.8896Z" fill="#EAEAF5"/>
<path d="M639.086 40.8896V48.3722L651.739 40.8896H639.086Z" fill="#EAEAF5"/>
<path d="M639.086 55.9917V48.5092L651.739 55.9917H639.086Z" fill="#EAEAF5"/>
<path d="M663.27 40.8896L656.832 48.4061L663.27 55.9917V40.8896Z" fill="#EAEAF5"/>
<path d="M665.359 40.8896V48.3722L678.013 40.8896H665.359Z" fill="#EAEAF5"/>
<path d="M665.359 55.9917V48.5092L678.013 55.9917H665.359Z" fill="#EAEAF5"/>
<path d="M689.544 40.8896L683.105 48.4061L689.544 55.9917V40.8896Z" fill="#EAEAF5"/>
<path d="M691.633 40.8896V48.3722L704.286 40.8896H691.633Z" fill="#EAEAF5"/>
<path d="M691.633 55.9917V48.5092L704.286 55.9917H691.633Z" fill="#EAEAF5"/>
<path d="M715.817 40.8896L709.379 48.4061L715.817 55.9917V40.8896Z" fill="#EAEAF5"/>
<path d="M717.906 40.8896V48.3722L730.56 40.8896H717.906Z" fill="#EAEAF5"/>
<path d="M717.906 55.9917V48.5092L730.56 55.9917H717.906Z" fill="#EAEAF5"/>
<path d="M742.09 40.8896L735.652 48.4061L742.09 55.9917V40.8896Z" fill="#EAEAF5"/>
<path d="M744.18 40.8896V48.3722L756.833 40.8896H744.18Z" fill="#EAEAF5"/>
<path d="M744.18 55.9917V48.5092L756.833 55.9917H744.18Z" fill="#EAEAF5"/>
<path d="M768.364 40.8896L761.926 48.4061L768.364 55.9917V40.8896Z" fill="#EAEAF5"/>
<path d="M770.453 40.8896V48.3722L783.107 40.8896H770.453Z" fill="#EAEAF5"/>
<path d="M770.453 55.9917V48.5092L783.107 55.9917H770.453Z" fill="#EAEAF5"/>
<path d="M794.637 40.8896L788.199 48.4061L794.637 55.9917V40.8896Z" fill="#EAEAF5"/>
<path d="M796.727 40.8896V48.3722L809.38 40.8896H796.727Z" fill="#EAEAF5"/>
<path d="M796.727 55.9917V48.5092L809.38 55.9917H796.727Z" fill="#EAEAF5"/>
<path d="M820.911 40.8896L814.473 48.4061L820.911 55.9917V40.8896Z" fill="#EAEAF5"/>
<path d="M823 40.8896V48.3722L835.653 40.8896H823Z" fill="#EAEAF5"/>
<path d="M823 55.9917V48.5092L835.653 55.9917H823Z" fill="#EAEAF5"/>
<path d="M847.184 40.8896L840.746 48.4061L847.184 55.9917V40.8896Z" fill="#EAEAF5"/>
<path d="M849.273 40.8896V48.3722L861.927 40.8896H849.273Z" fill="#EAEAF5"/>
<path d="M849.273 55.9917V48.5092L861.927 55.9917H849.273Z" fill="#EAEAF5"/>
<path d="M873.458 40.8896L867.02 48.4061L873.458 55.9917V40.8896Z" fill="#EAEAF5"/>
<path d="M875.547 40.8896V48.3722L888.2 40.8896H875.547Z" fill="#EAEAF5"/>
<path d="M875.547 55.9917V48.5092L888.2 55.9917H875.547Z" fill="#EAEAF5"/>
<path d="M899.731 40.8896L893.293 48.4061L899.731 55.9917V40.8896Z" fill="#EAEAF5"/>
<path d="M901.82 40.8896V48.3722L914.474 40.8896H901.82Z" fill="#EAEAF5"/>
<path d="M901.82 55.9917V48.5092L914.474 55.9917H901.82Z" fill="#EAEAF5"/>
<path d="M926.004 40.8896L919.566 48.4061L926.004 55.9917V40.8896Z" fill="#EAEAF5"/>
<path d="M928.094 40.8896V48.3722L940.747 40.8896H928.094Z" fill="#EAEAF5"/>
<path d="M928.094 55.9917V48.5092L940.747 55.9917H928.094Z" fill="#EAEAF5"/>
<path d="M952.276 40.8896L945.838 48.4061L952.276 55.9917V40.8896Z" fill="#EAEAF5"/>
<path d="M954.365 40.8896V48.3722L967.019 40.8896H954.365Z" fill="#EAEAF5"/>
<path d="M954.365 55.9917V48.5092L967.019 55.9917H954.365Z" fill="#EAEAF5"/>
<path d="M978.549 40.8896L972.111 48.4061L978.549 55.9917V40.8896Z" fill="#EAEAF5"/>
<path d="M980.639 40.8896V48.3722L993.292 40.8896H980.639Z" fill="#EAEAF5"/>
<path d="M980.639 55.9917V48.5092L993.292 55.9917H980.639Z" fill="#EAEAF5"/>
<path d="M1004.82 40.8896L998.385 48.4061L1004.82 55.9917V40.8896Z" fill="#EAEAF5"/>
<path d="M1006.91 40.8896V48.3722L1019.57 40.8896H1006.91Z" fill="#EAEAF5"/>
<path d="M1006.91 55.9917V48.5092L1019.57 55.9917H1006.91Z" fill="#EAEAF5"/>
<path d="M1031.1 40.8896L1024.66 48.4061L1031.1 55.9917V40.8896Z" fill="#EAEAF5"/>
<path d="M1033.19 40.8896V48.3722L1045.84 40.8896H1033.19Z" fill="#EAEAF5"/>
<path d="M1033.19 55.9917V48.5092L1045.84 55.9917H1033.19Z" fill="#EAEAF5"/>
<path d="M1057.37 40.8896L1050.93 48.4061L1057.37 55.9917V40.8896Z" fill="#EAEAF5"/>
<path d="M1059.46 40.8896V48.3722L1072.11 40.8896H1059.46Z" fill="#EAEAF5"/>
<path d="M1059.46 55.9917V48.5092L1072.11 55.9917H1059.46Z" fill="#EAEAF5"/>
<path d="M1083.64 40.8896L1077.21 48.4061L1083.64 55.9917V40.8896Z" fill="#EAEAF5"/>
<path d="M1085.73 40.8896V48.3722L1098.39 40.8896H1085.73Z" fill="#EAEAF5"/>
<path d="M1085.73 55.9917V48.5092L1098.39 55.9917H1085.73Z" fill="#EAEAF5"/>
<path d="M1109.92 40.8896L1103.48 48.4061L1109.92 55.9917V40.8896Z" fill="#EAEAF5"/>
<path d="M1112.01 40.8896V48.3722L1124.66 40.8896H1112.01Z" fill="#EAEAF5"/>
<path d="M1112.01 55.9917V48.5092L1124.66 55.9917H1112.01Z" fill="#EAEAF5"/>
<path d="M1136.19 40.8896L1129.75 48.4061L1136.19 55.9917V40.8896Z" fill="#EAEAF5"/>
<path d="M1138.28 40.8896V48.3722L1150.93 40.8896H1138.28Z" fill="#EAEAF5"/>
<path d="M1138.28 55.9917V48.5092L1150.93 55.9917H1138.28Z" fill="#EAEAF5"/>
<path d="M1162.46 40.8896L1156.03 48.4061L1162.46 55.9917V40.8896Z" fill="#EAEAF5"/>
<path d="M1164.55 40.8896V48.3722L1177.21 40.8896H1164.55Z" fill="#EAEAF5"/>
<path d="M1164.55 55.9917V48.5092L1177.21 55.9917H1164.55Z" fill="#EAEAF5"/>
<path d="M1188.74 40.8896L1182.3 48.4061L1188.74 55.9917V40.8896Z" fill="#EAEAF5"/>
<path d="M1190.83 40.8896V48.3722L1203.48 40.8896H1190.83Z" fill="#EAEAF5"/>
<path d="M1190.83 55.9917V48.5092L1203.48 55.9917H1190.83Z" fill="#EAEAF5"/>
<path d="M1215.01 40.8896L1208.57 48.4061L1215.01 55.9917V40.8896Z" fill="#EAEAF5"/>
<path d="M1217.1 40.8896V48.3722L1229.75 40.8896H1217.1Z" fill="#EAEAF5"/>
<path d="M1217.1 55.9917V48.5092L1229.75 55.9917H1217.1Z" fill="#EAEAF5"/>
<path d="M1241.28 40.8896L1234.85 48.4061L1241.28 55.9917V40.8896Z" fill="#EAEAF5"/>
<path d="M1243.37 40.8896V48.3722L1256.03 40.8896H1243.37Z" fill="#EAEAF5"/>
<path d="M1243.37 55.9917V48.5092L1256.03 55.9917H1243.37Z" fill="#EAEAF5"/>
<path d="M1267.56 40.8896L1261.12 48.4061L1267.56 55.9917V40.8896Z" fill="#EAEAF5"/>
<path d="M1269.65 40.8896V48.3722L1282.3 40.8896H1269.65Z" fill="#EAEAF5"/>
<path d="M1269.65 55.9917V48.5092L1282.3 55.9917H1269.65Z" fill="#EAEAF5"/>
<path d="M1293.83 40.8896L1287.39 48.4061L1293.83 55.9917V40.8896Z" fill="#EAEAF5"/>
<path d="M1295.92 40.8896V48.3722L1308.57 40.8896H1295.92Z" fill="#EAEAF5"/>
<path d="M1295.92 55.9917V48.5092L1308.57 55.9917H1295.92Z" fill="#EAEAF5"/>
<path d="M1320.1 40.8896L1313.67 48.4061L1320.1 55.9917V40.8896Z" fill="#EAEAF5"/>
<path d="M1322.19 40.8896V48.3722L1334.85 40.8896H1322.19Z" fill="#EAEAF5"/>
<path d="M1322.19 55.9917V48.5092L1334.85 55.9917H1322.19Z" fill="#EAEAF5"/>
<path d="M1346.38 40.8896L1339.94 48.4061L1346.38 55.9917V40.8896Z" fill="#EAEAF5"/>
<path d="M1348.46 40.8896V48.3722L1361.12 40.8896H1348.46Z" fill="#EAEAF5"/>
<path d="M1348.46 55.9917V48.5092L1361.12 55.9917H1348.46Z" fill="#EAEAF5"/>
<path d="M1372.65 40.8896L1366.21 48.4061L1372.65 55.9917V40.8896Z" fill="#EAEAF5"/>
<path d="M1374.74 40.8896V48.3722L1387.39 40.8896H1374.74Z" fill="#EAEAF5"/>
<path d="M1374.74 55.9917V48.5092L1387.39 55.9917H1374.74Z" fill="#EAEAF5"/>
<path d="M1398.92 40.8896L1392.48 48.4061L1398.92 55.9917V40.8896Z" fill="#EAEAF5"/>
<path d="M1401.01 40.8896V48.3722L1413.67 40.8896H1401.01Z" fill="#EAEAF5"/>
<path d="M1401.01 55.9917V48.5092L1413.67 55.9917H1401.01Z" fill="#EAEAF5"/>
<path d="M1425.2 40.8896L1418.76 48.4061L1425.2 55.9917V40.8896Z" fill="#EAEAF5"/>
<path d="M1427.29 40.8896V48.3722L1439.94 40.8896H1427.29Z" fill="#EAEAF5"/>
<path d="M1427.29 55.9917V48.5092L1439.94 55.9917H1427.29Z" fill="#EAEAF5"/>
</svg>
